<svg id="Camada_1" data-name="Camada 1" xmlns="http://www.w3.org/2000/svg" viewBox="0 0 8 8"><path d="M.5987,7.4699a.59226.59226,0,0,1-.56566-.78L.0407,6.6688q.98717-2.65369,2.002-5.29707C2.31662.6548,2.47289.5413,3.20941.53622c1.24471-.00858,2.49-.02093,3.73394.01134a1.43521,1.43521,0,0,1,.86759.30667.85386.85386,0,0,1,.16137.7479c-.3498,1.04445-.72852,2.08249-1.16507,3.0934a1.6109,1.6109,0,0,1-1.38567.96173c-.84084.05046-1.68677.023-2.53023.00873l-.005-.00011a.42777.42777,0,0,1-.42451-.51562c.143-.78206.47264-.99486,1.31946-.99764.55039-.00181,1.10078-.00033,1.70139-.00033l.8006-2.0774c-1.03444-.00376-1.96537.01861-2.94.00619L1.47257,6.91861a.8623.8623,0,0,1-.80426.55129Z" style="fill:#1b3967"/></svg>