<svg id="Camada_1" data-name="Camada 1" xmlns="http://www.w3.org/2000/svg" viewBox="0 0 281.05901 64"><path d="M185.01428.5a4.22482,4.22482,0,0,1,3.95392,5.71768c-.175.46271-.35188.931-.53467,1.42479q-7.00247,18.9153-14.25727,37.73676c-2.29529,5.94372-10.11017,5.64824-11.94208,3.57384-.73952,1.49039-5.59057,1.42767-8.12963,1.53249-5.31.2192-10.63757.14953-15.95431.03356-5.8848-.12837-8.09543-3.21566-6.155-8.816,2.282-6.5862,4.61825-13.17213,7.35667-19.57616,2.43782-5.701,7.10682-8.61781,13.38585-8.68359,6.97974-.07312,17.94473-.06123,22.40526-.1961,1.065-2.68695,2.22157-5.856,3.36406-8.73857A6.34739,6.34739,0,0,1,184.40722.5ZM164.226,42.25122,170.68248,24.795H149.47037c-1.81743,4.8658-3.52755,9.44423-5.51378,14.76195,5.509,0,10.13195-.00889,14.75487.00411C160.72757,39.56674,162.89525,39.317,164.226,42.25122Z" style="fill:#1b3967"/><path d="M4.32179,63.5A4.27536,4.27536,0,0,1,.23847,57.86966q.027-.07647.05532-.1525,7.126-19.156,14.45183-38.23757c1.97722-5.17523,3.10528-5.99454,8.42192-6.0312,8.98509-.06195,17.97441-.15111,26.95389.08183a10.35987,10.35987,0,0,1,6.2628,2.21377c1.14073,1.02827,1.6893,3.83294,1.16488,5.39875C55.024,28.68229,52.29017,36.17548,49.1389,43.47287a11.62841,11.62841,0,0,1-10.0026,6.94236c-6.06973.36424-12.17615.16585-18.26477.063l-.03586-.00079a3.08788,3.08788,0,0,1-3.06435-3.722c1.03241-5.64545,3.41182-7.18155,9.52467-7.20163,3.97305-.013,7.94617-.00235,12.2817-.00235,1.87135-4.85577,3.6381-9.44011,5.77927-14.996-7.46725-.02713-14.18727.13431-21.22285.04469L10.63,59.52047A6.22466,6.22466,0,0,1,4.82429,63.5Z" style="fill:#1b3967"/><path d="M241.28224,45.1817c2.45062-6.62627,4.9026-13.25617,7.5151-20.32007h-8.15468c-2.44618,6.3893-4.92545,12.89266-7.42578,19.38792-2.02476,5.25985-3.912,6.83267-8.94758,6.04293a3.34409,3.34409,0,0,1-2.75262-3.84546,9.84594,9.84594,0,0,1,.45965-1.85511c3.22277-8.74155,6.64832-17.40836,9.8694-26.15051,1.27117-3.45005,3.56506-5.019,7.17022-5.01041,11.66407.0278,23.32972-.09986,34.99173.05641,6.06124.08122,8.37225,3.59793,6.31818,9.3472C277.80671,29.88552,275.113,36.875,272.431,43.86655c-2.043,5.32565-3.35222,6.86174-7.99814,6.56031a4.05971,4.05971,0,0,1-3.68575-4.8791,8.95,8.95,0,0,1,.28717-1.05873c1.671-4.879,3.60066-9.669,5.4-14.5047.5673-1.52463,1.04394-3.083,1.73766-5.14868h-7.71461s-5.83772,13.79521-8.97492,21.22069c-.64761,1.53281-2.36139,4.22937-4.92185,4.41709-.54554.04-1.08245.07847-1.611.08154A3.97072,3.97072,0,0,1,241.28224,45.1817Z" style="fill:#1b3967"/><path d="M206.08585,26.84733a4.11034,4.11034,0,0,1,3.8038,5.49889c-1.34371,3.71124-2.62993,5.2445-6.45851,5.2445-3.16288,0-6.32736-.03107-9.48856.04922-1.03028.02617-3.43693.26665-3.00207,1.45315h19.92387c1.6978-4.43811,3.45471-9.03072,5.58861-14.60879H192.76828c.57253-5.59968,3.67143-11.057,7.12064-11.0078,7.32287.10448,14.65178-.15,21.97389-.00213,6.12824.12371,8.43138,3.45664,6.37128,9.20775-2.74709,7.669-5.78357,15.234-8.55269,22.89544-1.32972,3.67894-3.74652,5.08093-7.59769,5.02-9.32056-.14744-18.64558.01293-27.96776-.06905-6.219-.05469-8.40426-3.1193-6.52146-9.06736a61.43813,61.43813,0,0,1,2.90124-7.42465c1.815-3.888,5.09783-6.67267,9.15833-6.98129C195.078,26.643,200.54237,26.762,206.08585,26.84733Z" style="fill:#1b3967"/><path d="M105.04277,50.54875c-4.16339-.00392-8.329.08275-12.48962-.0254-5.45817-.14189-7.93978-3.02863-6.30113-8.0387a228.989,228.989,0,0,1,8.10932-21.454A12.51066,12.51066,0,0,1,105.9364,13.5324q12.47959-.36129,24.97648-.02369c6.15765.15731,8.2926,3.49854,6.20793,9.356q-3.345,9.39867-7.0498,18.668c-2.419,6.0246-6.91075,9.15253-13.53748,9.03255C112.70445,50.49594,108.8731,50.55268,105.04277,50.54875Zm20.13775-25.82689H103.966c-1.75052,4.69541-3.45372,9.2639-5.38835,14.45317H119.804Z" style="fill:#1b3967"/><path d="M77.5386,26.54946V24.81975H69.56531c-2.42117,6.26817-4.8964,12.5791-7.29716,18.91824-2.095,5.53173-3.41373,7.05028-8.3121,6.6432a3.76737,3.76737,0,0,1-3.49484-4.14913,5.822,5.822,0,0,1,.29133-1.2608c3.23349-8.89457,6.70867-17.701,9.98377-26.58086A6.86572,6.86572,0,0,1,67.918,13.42922c5.31972.04215,10.64323-.10409,15.95922.04316,6.08868.16865,8.23557,3.36383,6.3874,9.23808a27.73609,27.73609,0,0,1-1.75513,4.65266c-1.66654,3.1567-4.36867,4.42749-7.48855,3.69A4.60484,4.60484,0,0,1,77.5386,26.54946Z" style="fill:#1b3967"/></svg>